<svg
  xmlns="http://www.w3.org/2000/svg"
  xmlns:xlink="http://www.w3.org/1999/xlink"
  width="1080"
  zoomAndPan="magnify"
  viewBox="0 0 810 809.999993"
  height="1080"
  preserveAspectRatio="xMidYMid meet"
  version="1.0"
><defs><clipPath id="70d7f50cc0"><path
        d="M 0.753906 -39.453125 L 894.917969 721.105469 L 727.265625 918.210938 L -166.902344 157.652344 Z M 0.753906 -39.453125 "
        clip-rule="nonzero"
      /></clipPath><clipPath id="8c20ed4826"><path
        d="M 0.753906 -39.453125 L 894.917969 721.105469 L 727.265625 918.210938 L -166.902344 157.652344 Z M 0.753906 -39.453125 "
        clip-rule="nonzero"
      /></clipPath><clipPath id="84a604574d"><path
        d="M 43 0 L 810 0 L 810 735 L 43 735 Z M 43 0 "
        clip-rule="nonzero"
      /></clipPath><clipPath id="48d0c07a74"><path
        d="M 43.121094 2.070312 L 435.957031 -455.597656 L 1289.03125 276.625 L 896.195312 734.296875 Z M 43.121094 2.070312 "
        clip-rule="nonzero"
      /></clipPath><clipPath id="a544963ebf"><path
        d="M 43.121094 2.070312 L 435.957031 -455.597656 L 1289.03125 276.625 L 896.195312 734.296875 Z M 43.121094 2.070312 "
        clip-rule="nonzero"
      /></clipPath></defs><g clip-path="url(#70d7f50cc0)"><g
      clip-path="url(#8c20ed4826)"
    ><path
        fill="#006064"
        d="M -11.519531 -15.921875 L 6.824219 22.292969 C 24.960938 60.757812 61.96875 136.824219 104.058594 206.914062 C 146.464844 276.632812 193.949219 340.378906 264.332031 377.207031 C 334.503906 414.28125 427.046875 425.054688 500.046875 458.804688 C 572.835938 492.796875 626.609375 549.152344 674.253906 612.710938 C 722.105469 676.027344 764.351562 745.933594 785.476562 780.882812 L 806.597656 815.835938 L 890.425781 717.285156 L 860.921875 692.1875 C 831.414062 667.089844 772.402344 616.894531 713.390625 566.699219 C 654.378906 516.507812 595.367188 466.3125 536.355469 416.117188 C 477.34375 365.921875 418.328125 315.726562 359.316406 265.535156 C 300.304688 215.339844 241.292969 165.144531 182.28125 114.949219 C 123.269531 64.753906 64.257812 14.5625 34.75 -10.535156 L 5.246094 -35.632812 Z M -11.519531 -15.921875 "
        fill-opacity="1"
        fill-rule="nonzero"
      /></g></g><g clip-path="url(#84a604574d)"><g
      clip-path="url(#48d0c07a74)"
    ><g clip-path="url(#a544963ebf)"><path
          fill="#006064"
          d="M 43.121094 2.070312 L 435.957031 -455.597656 L 1289.03125 276.625 L 896.195312 734.296875 Z M 43.121094 2.070312 "
          fill-opacity="1"
          fill-rule="nonzero"
        /></g></g></g></svg>
